<svg id="Layer_1" data-name="Layer 1" xmlns="http://www.w3.org/2000/svg" viewBox="0 0 177.56 176.26"><defs><style>.cls-1{fill:#231f20;}.cls-2{fill:#e9f7fe;}.cls-3{fill:#fde0d6;}.cls-4{fill:none;stroke:#fff;stroke-miterlimit:10;stroke-width:4px;}.cls-5{fill:#fff;}</style></defs><path class="cls-1" d="M157.85,174.63H21.23A18.26,18.26,0,0,1,4.47,163.8c-1.41-3.23-1.57-6.54-1.57-10V20.67c0-4.92,1.19-9.59,4.52-13.38A16.51,16.51,0,0,1,19.68,1.62H154c3.11,0,6.1,0,9.08,1.21A18.62,18.62,0,0,1,174.63,20.3c0,2.16,0,4.33,0,6.5V140.07c0,5.65.07,11.31,0,17-.11,9.24-7.3,17.52-16.78,17.6-.58,0-1.62.2-1.91.79s.24.84.78.83c10.14-.09,19.56-7.34,20.7-17.72a57.7,57.7,0,0,0,.11-6.17V40.12q0-10.29,0-20.59A19.47,19.47,0,0,0,166.58,2c-3.52-1.69-7.21-2-11-2H21.89C16.18,0,10.67,1.59,6.38,5.53A20.19,20.19,0,0,0,0,20.89V154.46c0,3.48.14,6.84,1.57,10.12a19.86,19.86,0,0,0,18.32,11.67c6.65,0,13.3,0,20,0H156.72c.58,0,1.62-.19,1.91-.78S158.39,174.63,157.85,174.63Z"/><rect class="cls-1" x="25.37" y="24.73" width="126.79" height="126.79" rx="18.79"/><path class="cls-2" d="M26,50.54c10.48-.21,20.95-.3,31.43-.38L88.89,50l31.43.12,15.72.13,15.71.25L136,50.78l-15.72.14L88.89,51l-31.43-.12C47,50.84,36.51,50.75,26,50.54Z"/><path class="cls-3" d="M26,79.11c10.48-.21,20.95-.31,31.43-.39l31.43-.11,31.43.11,15.72.14,15.71.25L136,79.35l-15.72.14-31.43.11-31.43-.11C47,79.41,36.51,79.31,26,79.11Z"/><path class="cls-2" d="M25.37,107.67c10.48-.21,21-.3,31.43-.38l31.43-.12,31.44.12,15.71.14,15.72.24-15.72.25-15.71.13-31.44.12-31.43-.12C46.33,108,35.85,107.88,25.37,107.67Z"/><path class="cls-3" d="M29.15,135.26c10.48-.21,21-.31,31.43-.39L92,134.76l31.43.11,15.72.14,15.71.25-15.71.24-15.72.14L92,135.76l-31.43-.12C50.1,135.56,39.63,135.46,29.15,135.26Z"/><line class="cls-4" x1="48.45" y1="20.62" x2="48.45" y2="156.55"/><path class="cls-5" d="M115.47,77.16a18.9,18.9,0,1,1-18.9-18.9A18.83,18.83,0,0,1,115.47,77.16Z"/><path class="cls-5" d="M80.44,118H112.7a2,2,0,0,0,1.89-2.44L107,87a2,2,0,0,0-1.88-1.44H87.6a1.94,1.94,0,0,0-1.89,1.47l-7.16,28.5A2,2,0,0,0,80.44,118Z"/><path class="cls-1" d="M108.27,81.8a11.7,11.7,0,1,1-11.7-11.7A11.67,11.67,0,0,1,108.27,81.8Z"/><path class="cls-1" d="M86.59,107.07h20a1.2,1.2,0,0,0,1.16-1.51L103,87.91a1.22,1.22,0,0,0-1.17-.89H91a1.2,1.2,0,0,0-1.17.91l-4.43,17.64A1.21,1.21,0,0,0,86.59,107.07Z"/></svg>